<svg xmlns="http://www.w3.org/2000/svg" width="20" height="20" viewBox="0 0 20 20"><path d="M21.491,10.3H14.924l-2-6.413a.707.707,0,0,0-1.357,0l-2,6.413H2.964a.745.745,0,0,0-.714.769.607.607,0,0,0,.013.13.754.754,0,0,0,.3.543l5.4,4.1L5.888,22.322a.807.807,0,0,0,.246.865.667.667,0,0,0,.4.188.837.837,0,0,0,.446-.173l5.268-4.043L17.518,23.2a.8.8,0,0,0,.446.173.62.62,0,0,0,.4-.188.8.8,0,0,0,.246-.865l-2.071-6.486L21.888,11.7l.129-.12a.832.832,0,0,0,.232-.514A.783.783,0,0,0,21.491,10.3ZM19.375,11.99l-3.562,2.755a1.41,1.41,0,0,0-.455,1.529L16.7,20.49a.183.183,0,0,1-.272.221l-3.455-2.654,0,0a1.835,1.835,0,0,1-.719-1.466V6.514a.086.086,0,0,1,.17-.029h0l1.321,4.24a1.26,1.26,0,0,0,1.183.918h4.344A.2.2,0,0,1,19.375,11.99Z" transform="translate(-2.25 -3.375)"/></svg>