<svg xmlns="http://www.w3.org/2000/svg" width="20" height="20" viewBox="0 0 20 20"><path d="M21.491,10.3H14.924l-2-6.413a.707.707,0,0,0-1.357,0l-2,6.413H2.964a.745.745,0,0,0-.714.769.607.607,0,0,0,.013.13.754.754,0,0,0,.3.543l5.4,4.1L5.888,22.322a.807.807,0,0,0,.246.865.667.667,0,0,0,.4.188.837.837,0,0,0,.446-.173l5.268-4.043L17.518,23.2a.8.8,0,0,0,.446.173.62.62,0,0,0,.4-.187.8.8,0,0,0,.246-.865l-2.071-6.486L21.888,11.7l.129-.12a.832.832,0,0,0,.232-.514A.783.783,0,0,0,21.491,10.3Z" transform="translate(-2.25 -3.375)"/></svg>